<svg width="605" height="1629" viewBox="0 0 605 1629" fill="none" xmlns="http://www.w3.org/2000/svg">
<g id="humanOutline2">
<path id="Vector" d="M307.243 933.667C304.356 896.055 310.359 822.203 301.102 826.938C301.102 826.938 299.589 833.522 299.329 835.579C297.577 849.573 299.208 909.985 297.195 932.102C297.195 932.102 290.032 989.977 286.044 1006.21C282.056 1022.44 274.878 1121.44 266.9 1145.78C258.924 1170.13 250.15 1202.58 258.126 1227.74C266.102 1252.9 274.878 1295.09 266.9 1333.23C258.924 1371.37 250.15 1424.52 254.936 1451.3C258.457 1471.01 259.722 1489.85 262.914 1493.9C266.102 1497.96 262.914 1506.07 262.914 1516.63C262.914 1527.17 264.508 1549.9 260.919 1558.42C260.919 1564.5 266.102 1581.14 263.313 1588.85C260.52 1596.56 263.313 1601.02 259.722 1604.26C256.133 1607.51 250.15 1616.03 236.989 1612.79C229.011 1610.35 228.614 1604.26 229.811 1603.05C231.006 1601.83 225.422 1602.64 225.422 1602.64C222.642 1607.82 212.662 1609.51 207.874 1602.24C207.078 1601.02 204.287 1606.7 197.905 1605.48C191.523 1604.26 194.316 1601.43 194.316 1601.43C194.316 1601.43 185.939 1601.83 183.946 1596.96C183.547 1598.18 179.559 1599.8 176.367 1596.56C173.177 1593.31 173.576 1582.76 174.773 1577.49C175.968 1572.21 181.569 1563.09 183.547 1559.63C186.338 1554.77 196.708 1536.1 196.309 1530.83C196.061 1527.56 197.105 1502.83 199.499 1496.75C201.893 1490.66 202.292 1483.35 202.292 1475.24C202.292 1467.12 204.287 1421.28 188.333 1364.88C172.379 1308.48 164.802 1280.89 164.405 1241.94C164.006 1202.99 181.552 1179.46 171.182 1120.63C160.814 1061.79 156.427 1022.84 155.23 1019.19C154.033 1015.54 147.555 932.101 147.555 932.101C146.641 841.236 149.675 856.508 150.905 823.526C153.258 760.274 151.956 771.505 160.955 734.914C162.532 722.756 163.409 711.875 164.986 699.711C165.643 694.641 166.996 688.293 167.655 683.222C176.851 651.569 176.797 657.919 172.846 628.971C170.236 609.802 173.504 612.281 175.46 592.508C175.804 589.003 179.254 526.976 172.68 493.503C168.214 480.437 163.748 467.369 159.28 454.306H158.723C158.924 486.457 147.674 509.844 141.971 537.239C140.104 550.24 139.579 561.123 137.674 574.115C137.089 578.129 135.961 580.972 135.359 585.11C132.763 602.971 138.179 610.078 131.922 642.326C124.68 679.643 108.995 712.234 101.772 749.685C100.575 755.883 101.219 762.549 101.456 768.596C102.041 772.627 103.071 774.926 103.931 779.148C105.126 785.009 105.711 792.315 106.794 797.966C108.128 804.908 108.232 813.276 108.458 821.401C108.665 828.747 109.495 833.94 108.746 843.271C108.528 845.99 108.713 879.599 105.612 891.958C104.178 897.659 100.92 897.232 99.5351 896.237C93.8191 888.583 98.9201 871.118 93.2551 852.638C92.6961 853.018 92.6961 852.684 92.1371 853.063C92.2211 857.11 91.4701 862.336 91.9581 868.545C92.7371 878.522 92.3361 882.687 92.0281 886.579C91.1961 897.151 90.6841 906.298 88.1041 911.797C86.7091 914.771 82.9041 917.388 79.4351 913.276C77.4981 909.974 77.2271 905.102 77.0241 898.217C76.1461 868.163 76.0551 877.923 75.6901 871.248C75.3021 864.065 75.0801 858.48 75.0801 858.48C74.1901 858.244 73.5861 858.127 72.7351 858.458C70.5681 878.156 72.5571 874.177 69.7751 897.904C69.2841 902.091 69.6361 909.931 68.5501 914.982C66.3211 925.345 56.8791 924.033 56.1061 916.01C55.8411 913.27 55.2201 910.323 54.8681 907.924C54.4881 905.332 54.7041 901.664 54.6141 898.935C54.4751 894.726 54.0491 891.047 53.7261 886.865C53.3531 882.026 55.8101 868.971 53.7491 859.315C53.7231 859.315 52.6071 859.315 52.6331 859.315C51.8991 863.674 50.3881 870.268 48.6641 878.76C48.3991 880.069 48.2651 882.391 47.9831 883.734C46.4341 891.128 46.5901 895.31 45.8171 899.883C44.6031 907.107 45.8701 908.2 43.3121 913.006C40.5211 918.255 36.1771 915.863 35.0161 913.086C33.2151 908.776 32.2021 901.745 32.2211 893.112C32.2581 877.117 34.9371 873.755 35.0461 852.492C35.0691 848.089 35.3131 844.216 34.7641 840.143V842.273C32.3291 846.382 31.3911 850.401 26.9481 852.495C24.7351 853.284 22.9471 853.74 21.2851 852.859C19.6611 852.006 18.5671 852.336 19.1661 849.123C19.6271 846.654 20.7561 843.263 21.1801 840.216C21.8181 835.635 21.7351 831.518 22.8211 826.711C23.4531 823.922 25.1891 820.507 26.0241 817.826C27.3901 813.442 27.9821 807.376 29.1801 805.352C30.0831 803.819 32.1841 801.378 33.4901 799.654C33.8361 799.198 42.4341 786.473 45.7761 782.081C49.1321 777.672 51.4751 773.94 51.4751 773.94C51.5261 762.195 54.5341 755.162 53.5551 743.865C51.8631 724.307 53.0601 745.625 51.2161 622.633C55.9961 554.372 62.2611 573.012 68.3521 511.115C72.4101 470.063 73.1501 454.841 75.7161 446.318C78.1681 438.171 82.0561 417.226 81.3731 402.643C80.9141 392.842 80.9231 388.422 79.8301 382.166C77.7801 370.412 78.3991 339.427 91.5551 312.867C103.032 289.692 118.873 278.819 141.184 269.578C156.715 263.144 155.617 266.788 184.162 251.365C201.236 242.138 241.976 218.107 249.783 200.502C249.907 184.183 249.417 186.059 249.792 170.724C249.792 170.724 246.579 157.426 245.262 148.133C238.408 148.059 234.493 141.684 232.135 133.815C230.041 126.835 230.258 114.553 230.217 112.917C230.054 106.55 229.776 100.467 235.212 98.1465C236.657 97.8055 236.913 97.7705 237.563 97.9385C238.399 98.1515 238.841 99.0695 239.678 99.2825C238.622 66.0465 243.916 40.0365 265.364 25.4385C303.511 -0.523479 349.558 21.0535 361.959 56.6825C366.109 68.6085 366.171 85.0255 364.75 99.2835H365.307C366.519 98.2635 366.752 97.6555 369.184 98.0465C373.487 99.9355 374.775 104.966 374.896 114.011C375.073 127.456 374.296 136.443 365.529 145.914C363.34 148.28 361.247 148.004 358.052 149.272C357.845 153.917 355.349 167.888 355.349 167.888C355.349 167.888 353.646 196.056 354.698 199.826C359.062 215.389 410.444 247.685 440.49 260.906C458.238 268.72 488.934 272.674 509.521 305.48C523.384 327.559 528.672 358.977 525.225 379.956C523.856 388.26 522.329 408.906 524.77 422.9C535.688 476.933 529.99 439.182 537.191 511.853C540.894 549.148 541.817 544.338 549.259 578.916C550.136 582.995 550.053 585.751 550.605 590.98C552.268 606.846 556.225 621.404 553.097 695.909C550.298 762.286 549.137 749.401 552.154 764.263C553.362 770.255 549.091 772.695 566.211 795.06C567.711 797.018 569.299 799.932 570.792 801.555C572.486 803.399 574.061 803.961 575.249 806.484C576.563 809.286 575.972 811.664 576.629 814.758C577.436 818.497 578.276 821.484 580.734 827.107C581.747 829.434 580.659 835.888 581.387 840.568C581.797 843.205 583.348 845.728 583.775 848.307C583.777 848.328 584.714 849.607 584.537 850.789C584.281 852.477 582.533 854.169 579.156 853.443C572.71 852.403 572.055 847.21 568.545 843.407C568.625 848.746 567.95 850.688 569.644 873.135C570.071 878.797 573.537 903.471 568.445 913.596C566.689 917.091 562.724 916.593 560.642 914.107C555.077 907.464 560.269 903.422 551.717 862.747C550.601 857.476 549.368 862.136 549.368 862.136C549.208 887.6 551.034 875.204 549.118 893.972C548.176 903.098 548.743 921.255 543.673 922.612C539.015 923.865 536.307 920.294 535.492 917.195C533.37 909.088 533.536 899.133 533.478 898.133C533.324 895.404 532.452 889.013 532.343 886.219C531.978 877.005 532.84 873.401 531.041 859.302C530.898 858.128 529.579 857.953 529.579 857.953C527.618 859.771 528.728 866.406 528.393 869.503C525.243 898.425 528.835 901.566 524.042 912.534C522.414 916.255 517.562 916.416 515.609 913.026C514.167 910.513 514.083 907.299 513.904 906.674C512.148 900.585 512.57 893.868 512.041 888.104C511.687 884.294 511.115 883.22 511.185 880.146C511.418 869.709 513.494 863.182 511.597 852.495C511.224 852.308 510.85 852.117 510.479 851.932C509.734 853.089 510.02 854.122 509.647 855.648C508.435 860.576 508.243 867.801 507.443 873.506C506.184 882.523 508.354 893.866 502.659 896.239C499.868 896.048 500.056 895.858 498.385 894.154C493.009 880.597 496.58 863.067 495.268 846.633C493.682 826.862 495.204 827.952 495.618 821.448C497.535 790.375 496.584 805.053 498.823 789.266C501.085 773.323 501.877 775.404 502.956 768.039C505.015 753.986 502.29 747.188 497.957 730.334C497.466 728.413 496.794 726.838 496.335 724.852C494.246 715.885 490.48 705.849 488.101 697.247C468.783 627.419 473.613 643.169 470.948 624.599C469.662 615.656 469.815 619.104 470.835 588.932C470.026 583.333 468.471 578.492 467.658 572.896C465.861 560.505 464.814 547.357 463.019 534.969C457.362 508.751 447.063 486.178 446.826 454.876C446.457 455.065 446.083 455.254 445.71 455.445C442.902 466.557 437.568 479.26 432.927 490.62C430.522 496.514 432.509 496.946 430.405 505.998C427.519 518.422 426.26 569.82 429.52 594.044C430.447 600.997 430.717 595.854 432.313 614.492C432.597 617.846 432.149 620.292 431.865 624.13C431.632 627.268 431.641 631.837 431.227 634.403C429.759 643.49 427.988 649.934 430.077 659.368C432.097 668.477 432.754 663.623 438.828 694.31C439.822 699.323 439.579 701.93 440.294 707.675C440.859 712.221 442.372 719.933 443.13 723.94C443.875 727.857 444.193 732.895 444.918 736.755C446.486 745.103 453.001 766.646 453.378 798.818C454.082 858.349 457.854 854.323 457.402 901.062C456.788 957.982 448.818 1048.6 443.176 1075.18C435.599 1110.89 430.414 1157.15 433.209 1166.07C435.996 1175 445.572 1245.19 439.984 1277.65C434.402 1310.1 405.688 1417.63 406.087 1439.54C406.484 1461.45 400.168 1480.98 406.484 1495.12C410.474 1504.05 407.683 1522.31 409.277 1527.58C410.873 1532.85 412.866 1547.87 418.45 1552.33C424.034 1556.8 433.604 1579.51 431.611 1586.82C429.616 1594.12 426.426 1599.8 421.241 1597.78C416.856 1602.64 411.27 1601.43 410.075 1601.02C408.878 1600.61 405.688 1609.95 396.116 1602.64C393.724 1606.29 390.534 1609.13 383.751 1606.29C376.972 1603.45 378.967 1602.64 378.967 1602.64L373.782 1603.45C373.782 1603.45 374.578 1614 365.006 1614C355.436 1614 341.477 1607.51 342.275 1596.96C343.071 1586.41 341.477 1572.21 346.263 1557.61C341.477 1547.46 341.078 1531.23 343.472 1523.52C345.864 1515.82 343.472 1505.67 343.071 1500.4C342.672 1495.12 350.65 1463.07 350.65 1454.14C350.65 1445.21 351.448 1363.66 345.864 1351.49C340.28 1339.32 333.102 1291.44 341.477 1258.17C341.477 1258.17 351.587 1209.89 351.847 1197.72C352.244 1179.05 331.506 1121.85 331.506 1099.13C331.506 1076.4 317.946 989.979 316.352 983.487C314.758 976.995 307.243 933.667 307.243 933.667Z" fill="black"/>
<path id="r-hallux" d="M237 1610.5C227.8 1610.1 230.5 1603.67 233 1600.5L245.5 1548H260.5L259 1560L260.5 1569L262.5 1577.5C262.667 1579.83 260.9 1587.5 260.5 1593.5C260.1 1599.5 257.333 1603.83 256 1605C253.5 1607 246.2 1610.9 237 1610.5Z" stroke="#CF2F2F"/>
<path id="l-hallux" d="M366.383 1610.97C374.456 1610.57 372.087 1604.09 369.893 1600.9L363.5 1548H345.765L347.081 1560.09L345.765 1569.16L344.01 1577.72C343.863 1580.07 343.659 1587.95 344.01 1594C344.361 1600.05 348.33 1605.82 349.5 1607C351.694 1609.02 358.311 1611.37 366.383 1610.97Z" stroke="#CF2F2F"/>
<path id="cranium" d="M270.707 22.8614L305.537 15L333.5 24L350.5 38L361 59L364 93.5L361 125.5L357.78 139.91L352.659 160H254.317L246.122 139.91L241 119.819V84.8795L246.122 50.8133L270.707 22.8614Z" stroke="#CF2F2F"/>
<path id="ao" d="M351 163H256V188H351V163Z" stroke="#CF2F2F"/>
<path id="tc" d="M351 206H257V493H351V206Z" stroke="#CF2F2F"/>
<path id="lt" d="M352 501H259V659H352V501Z" stroke="#CF2F2F"/>
<path id="si" d="M351 659H259V755H351V659Z" stroke="#CF2F2F"/>
<path id="r-scapular-thoracic" d="M174.007 434.836L166 267.552L232.724 222.744L295 163V630H202.476L181.5 582.5L187.352 527.439L174.007 434.836Z" stroke="#CF2F2F"/>
<path id="l-scapular-thoracic" d="M437.621 434.836L446 267.552L376.172 222.744L311 163V630H407.828L423.655 582.5L419 527.5L437.621 434.836Z" stroke="#CF2F2F"/>
<path id="r-gh" d="M81.5 429L156 457L169 411L180 331L193 254L156 268L111 288L88.5 320L81.5 354.5V382.5V429Z" stroke="#CF2F2F"/>
<path id="l-gh" d="M526.5 429L452 457L439 411L428 331L415 254L452 268L497 288L519.5 320L526.5 354.5V382.5V429Z" stroke="#CF2F2F"/>
<path id="r-elbow" d="M132 628L52.5 613.5L57 587L64.5 549.5L71.5 508L76.5 459L83.5 427.5L158 448.5L153 459V486.5L145 518.5L137.5 549.5L132 587V609V628Z" stroke="#CF2F2F"/>
<path id="l-elbow" d="M475 627.5L554.5 613L550 586.5L542.5 549L535.5 507.5L530.5 458.5L523.5 427L449 448L454 458.5V486L462 518L469.5 549L475 586.5V608.5V627.5Z" stroke="#CF2F2F"/>
<path id="r-wrist" d="M106.5 795L43.5 789.5L53.5 766L55.5 739.5L54.5 707L53.5 678V646.5L52.5 623.5L55.5 601.5L132 613L127 656.5L111 715L100.5 750.5V770L106.5 780.5V795Z" stroke="#CF2F2F"/>
<path id="l-wrist" d="M500.5 795L563.5 789.5L553.5 778L549.5 760V738.5L552.5 707L553.5 678V646.5L554.5 623.5L551.5 601.5L475 613L480 656.5L496 715L506.5 750.5V770L500.5 780.5V795Z" stroke="#CF2F2F"/>
<path id="r-hip" d="M291.5 837.5V924L210.5 916.5L150 879V813L160.5 756.5L174.5 690.5L186 653L245.5 646L280 585L301.5 570.5V813L291.5 837.5Z" stroke="#CF2F2F"/>
<path id="l-hip" d="M316 837V922.5L389.5 912.5L457.5 878.5V812.5L447 756L433 690L421.5 652.5L362 645.5L327.5 584.5L306 570V812.5L316 837Z" stroke="#CF2F2F"/>
<path id="r-knee" d="M263.5 1254L165.5 1248.5V1223L175.5 1179.5L178.5 1155L172.5 1114L166 1062L157 1014.5L151.5 960.5V906V856.5V812L157 762.5L172.5 746H210.5L299.5 823L295.5 834V906V922V947L291.5 972L285 1008.5L280 1049L274.5 1090.5L270 1123.5L263.5 1155L256 1182L251.5 1208L256 1229L263.5 1254Z" stroke="#CF2F2F"/>
<path id="l-knee" d="M343.5 1254L441.5 1248.5V1223L431.5 1179.5L428.5 1155L434.5 1114L441 1062L450 1014.5L455.5 960.5V906V856.5V812L450 762.5L434.5 746H396.5L307.5 823L311.5 834V906V922V947L315.5 972L322 1008.5L327 1049L332.5 1090.5L337 1123.5L343.5 1155L351 1182L355.5 1208L351 1229L343.5 1254Z" stroke="#CF2F2F"/>
<path id="r-ankle" d="M227.5 1519.5L198.5 1513L204.5 1487.5V1455.5L198.5 1414.5L192.5 1372.5L176.5 1323.5L167 1278.5V1242V1215L256.5 1222L260.5 1246L268.5 1285.5V1318.5L260.5 1362L256.5 1377.5L253 1409.5L251.5 1438L256.5 1475L264.5 1500.5L260.5 1519.5H227.5Z" stroke="#CF2F2F"/>
<path id="l-ankle" d="M380 1519.5L409 1513L403 1487.5V1455.5L409 1414.5L415 1372.5L431 1323.5L440.5 1278.5V1242V1215L351 1222L347 1246L339 1285.5V1318.5L349 1362L351 1385.5L352 1410.5V1438.5L351 1475L343 1500.5L347 1519.5H380Z" stroke="#CF2F2F"/>
<path id="r-toes" d="M185.5 1558.5L203.5 1513.5L255.5 1515.5L230.5 1601.5H226.5C225.833 1601.67 224 1602.4 222 1604C220 1605.6 218.833 1606 218.5 1606L213 1604L208.5 1600L203.5 1604H197L195 1600H190.5L185.5 1597H179.5C178.667 1596.5 176.6 1595.1 175 1593.5C173 1591.5 175.5 1586 175 1582.5C174.5 1579 176 1577 177 1573.5C177.8 1570.7 179 1569.33 179.5 1569L185.5 1558.5Z" stroke="#CF2F2F"/>
<path id="l-toes" d="M421.5 1558L408.212 1514L360.5 1516L372 1600L378.712 1601.5C379.379 1601.67 381.212 1602.4 383.212 1604C385.212 1605.6 386.379 1606 386.712 1606L392.212 1604L396.712 1600L401.712 1604H408.212L410.212 1600H414.712L419.712 1597H425.712C426.546 1596.5 426.612 1595.1 428.212 1593.5C430.212 1591.5 429.712 1586 430.212 1582.5C430.712 1579 429.212 1577 428.212 1573.5C427.412 1570.7 426.212 1569.33 425.712 1569L421.5 1558Z" stroke="#CF2F2F"/>
<circle id="jt-r-gh" cx="142" cy="321" r="5" fill="#F5FA00"/>
<circle id="jt-occiput" cx="302" cy="155" r="5" fill=""/>
<circle id="jt-ao" cx="302" cy="175" r="5" fill="#F5FA00"/>
<circle id="jt-tc" cx="302" cy="349" r="5" fill="#F5FA00"/>
<circle id="jt-lt" cx="303" cy="580" r="5" fill="#F5FA00"/>
<circle id="jt-si" cx="305" cy="707" r="5" fill="#F5FA00"/>
<circle id="jt-r-scapular-thoracic" cx="242" cy="347" r="5" fill="#F5FA00"/>
<circle id="jt-l-scapular-thoracic" cx="367" cy="347" r="5" fill="#F5FA00"/>
<circle id="jt-r-elbow" cx="97" cy="576" r="5" fill="#F5FA00"/>
<circle id="jt-l-elbow" cx="510" cy="576" r="5" fill="#F5FA00"/>
<circle id="jt-r-wrist" cx="76" cy="772" r="5" fill="#F5FA00"/>
<circle id="jt-r-hip" cx="226" cy="751" r="5" fill="#F5FA00"/>
<circle id="jt-r-knee" cx="214" cy="1195" r="5" fill="#F5FA00"/>
<circle id="jt-r-ankle" cx="232" cy="1506" r="5" fill="#F5FA00"/>
<circle id="jt-r-hallux" cx="247" cy="1590" r="5" fill="#F5FA00"/>
<circle id="jt-r-toes" cx="207" cy="1583" r="5" fill="#F5FA00"/>
<circle id="jt-l-toes" cx="398" cy="1583" r="5" fill="#F5FA00"/>
<circle id="jt-l-hallux" cx="355" cy="1590" r="5" fill="#F5FA00"/>
<circle id="jt-l-ankle" cx="376" cy="1506" r="5" fill="#F5FA00"/>
<circle id="jt-l-knee" cx="391" cy="1195" r="5" fill="#F5FA00"/>
<circle id="jt-l-hip" cx="380" cy="751" r="5" fill="#F5FA00"/>
<circle id="jt-l-wrist" cx="531" cy="771" r="5" fill="#F5FA00"/>
<circle id="jt-l-gh" cx="471" cy="321" r="5" fill="#F5FA00"/>
</g>
</svg>
